<?xml version="1.0" encoding="UTF-8"?>
<svg version="1.1" xmlns="http://www.w3.org/2000/svg" width="1024" height="1024">
<path d="M0 0 C337.92 0 675.84 0 1024 0 C1024 337.92 1024 675.84 1024 1024 C686.08 1024 348.16 1024 0 1024 C0 686.08 0 348.16 0 0 Z " fill="#170D9F" transform="translate(0,0)"/>
<path d="M0 0 C4.89474463 4.31203694 7.10550463 7.22526781 7.71655273 13.70629883 C7.54113109 18.69996822 5.4532426 23.02713842 3.5 27.5625 C2.65610899 29.61322323 1.81235783 31.66400401 0.96875 33.71484375 C0.56011719 34.6879248 0.15148437 35.66100586 -0.26953125 36.66357422 C-1.57690683 39.79630942 -2.79968406 42.94983993 -4 46.125 C-5.33812845 49.62259092 -6.6873238 53.1153186 -8.0546875 56.6015625 C-10.79680903 63.6000561 -13.50800305 70.59549609 -16 77.6875 C-17.79438935 82.77546207 -19.77090415 87.73848453 -21.87890625 92.703125 C-24.25016587 98.42386624 -26.47393043 104.20170749 -28.71899414 109.97290039 C-31.1952405 116.32722455 -33.7170924 122.66122433 -36.27001953 128.98510742 C-39.84695165 137.84771012 -43.29975837 146.71137119 -46.39477539 155.75390625 C-48.06687952 160.58936944 -50.05467006 165.18650192 -52.23828125 169.80859375 C-53.74836083 173.13492025 -54.93747407 176.54142449 -56.15234375 179.984375 C-58.08311813 185.24002921 -60.1992427 190.42106614 -62.31176758 195.60595703 C-63.96199591 199.67903969 -65.55425904 203.74452937 -66.9453125 207.9140625 C-71.34765393 221.02586885 -71.34765393 221.02586885 -77.23828125 225.30078125 C-82.52121713 227.80220793 -86.77392219 226.87287723 -92.125 225 C-97.21456935 222.14340376 -101.50060353 218.12392177 -105.8828125 214.30859375 C-109.28919129 211.35454993 -112.81033783 208.57196673 -116.375 205.8125 C-120.96655842 202.2461487 -125.45912308 198.59417825 -129.875 194.8125 C-136.02035637 189.55296077 -142.35497826 184.56171436 -148.73681641 179.59375 C-152.64535797 176.53681615 -156.50821698 173.42196377 -160.375 170.3125 C-160.50028076 171.1772998 -160.62556152 172.04209961 -160.75463867 172.93310547 C-161.35930755 176.22701601 -162.22807907 179.21336308 -163.30078125 182.3828125 C-163.68556641 183.5275 -164.07035156 184.6721875 -164.46679688 185.8515625 C-164.86962891 187.03492188 -165.27246094 188.21828125 -165.6875 189.4375 C-166.07873047 190.59765625 -166.46996094 191.7578125 -166.87304688 192.953125 C-167.65279395 195.26521086 -168.43418385 197.57674338 -169.21728516 199.88769531 C-170.95343944 205.02366585 -172.6653424 210.16765895 -174.375 215.3125 C-174.045 215.6425 -173.715 215.9725 -173.375 216.3125 C-172.85591064 215.76198975 -172.33682129 215.21147949 -171.80200195 214.64428711 C-169.44625446 212.16398587 -167.06747951 209.70704901 -164.6875 207.25 C-163.87087891 206.38310547 -163.05425781 205.51621094 -162.21289062 204.62304688 C-161.41689453 203.80771484 -160.62089844 202.99238281 -159.80078125 202.15234375 C-159.07286377 201.39300537 -158.34494629 200.63366699 -157.5949707 199.85131836 C-155.375 198.3125 -155.375 198.3125 -152.72338867 198.44750977 C-150.375 199.3125 -150.375 199.3125 -148.375 201.3125 C-147.92358398 203.58276367 -147.92358398 203.58276367 -148.375 206.3125 C-150.05895067 208.42190942 -151.65346647 210.15129897 -153.59765625 211.98828125 C-154.40510536 212.78156075 -154.40510536 212.78156075 -155.22886658 213.59086609 C-156.95365841 215.28110762 -158.69461473 216.95343977 -160.4375 218.625 C-162.7038179 220.8247274 -164.96365122 223.03104746 -167.22265625 225.23828125 C-167.76609177 225.76716949 -168.30952728 226.29605774 -168.86943054 226.8409729 C-173.71085246 231.57814202 -178.12904865 236.59013472 -182.4375 241.8125 C-185.11180179 243.88292719 -187.08854204 243.61126891 -190.375 243.3125 C-193.62768933 237.91537838 -194.16177777 232.88019221 -194.8125 226.75 C-195.72158092 219.01114158 -196.8352224 211.3886327 -198.375 203.75 C-199.89671632 196.11516967 -201.09269839 188.49810027 -202.08325195 180.77758789 C-203.60232361 169.1671783 -205.51980383 157.61618278 -207.39404297 146.05883789 C-207.6520338 144.45329026 -207.91000972 142.84774024 -208.16796875 141.2421875 C-208.28968948 140.50144485 -208.41141022 139.76070221 -208.53681946 138.99751282 C-209.06472724 135.70130522 -209.375 132.66345259 -209.375 129.3125 C-210.21804688 128.93544922 -210.21804688 128.93544922 -211.078125 128.55078125 C-213.72433319 127.12416901 -215.81845088 125.43048132 -218.125 123.5 C-219.08921875 122.69949219 -220.0534375 121.89898438 -221.046875 121.07421875 C-221.57603516 120.63384277 -222.10519531 120.1934668 -222.65039062 119.73974609 C-225.87234669 117.07333115 -229.12620684 114.44608719 -232.375 111.8125 C-233.7566534 110.69028018 -235.13816601 109.567887 -236.51953125 108.4453125 C-238.80823587 106.58549536 -241.09725855 104.72607477 -243.38671875 102.8671875 C-245.14130536 101.43790381 -246.8914798 100.00318284 -248.63671875 98.5625 C-250.68860911 96.87649594 -252.75343571 95.2148779 -254.83203125 93.5625 C-256.01341677 92.6046548 -257.19441211 91.64632815 -258.375 90.6875 C-259.20390747 90.04047119 -259.20390747 90.04047119 -260.04956055 89.38037109 C-265.06857277 85.25658327 -267.0223716 81.18390271 -267.8125 74.75 C-267.0751294 68.95637383 -263.8485999 65.16699225 -259.38348389 61.53689575 C-255.0528432 58.8968855 -249.99126264 58.04754181 -245.1015625 56.90234375 C-243.90502045 56.60816055 -242.70847839 56.31397736 -241.47567749 56.01087952 C-237.65405144 55.07499615 -233.82736086 54.16211454 -230 53.25 C-227.46447126 52.63369191 -224.92931043 52.01586809 -222.39453125 51.39648438 C-217.52886892 50.2098286 -212.66155995 49.03042766 -207.79223633 47.85888672 C-195.44464984 44.88687501 -183.16565938 41.74854615 -170.9375 38.3125 C-161.16828576 35.59376811 -151.40690815 33.01869194 -141.51367188 30.79541016 C-126.72828834 27.54252107 -126.72828834 27.54252107 -112.1875 23.375 C-105.87585858 21.34188394 -99.4621258 19.89929935 -93 18.4375 C-76.83332469 14.77900049 -60.83888962 10.59171486 -44.89331055 6.07275391 C-38.80140702 4.37329881 -32.65967026 2.96682503 -26.47338867 1.65576172 C-23.15337499 0.94973544 -19.93306362 0.18243645 -16.671875 -0.77734375 C-10.77291767 -2.40584737 -5.54352067 -2.77176034 0 0 Z M-18 9.9375 C-19.46089845 10.30744589 -20.92183859 10.67722721 -22.3828125 11.046875 C-23.18235352 11.24990234 -23.98189453 11.45292969 -24.80566406 11.66210938 C-28.48920789 12.59454578 -32.17574102 13.51488945 -35.86230469 14.43530273 C-37.89175626 14.94200778 -39.92105015 15.44934472 -41.95019531 15.95727539 C-47.17072914 17.26404282 -52.39252583 18.56529719 -57.6171875 19.85546875 C-66.54848225 22.06581375 -75.46282133 24.2929897 -84.3125 26.8125 C-92.51205215 29.14686519 -100.7833553 31.13957349 -109.08374023 33.08203125 C-115.91480515 34.68815967 -122.6919404 36.45143374 -129.46801758 38.27514648 C-136.75102839 40.22243831 -144.0776833 42.00161254 -151.39550781 43.8125 C-158.53593681 45.58119843 -165.66503776 47.37587375 -172.76953125 49.28515625 C-180.40890187 51.3369416 -188.07601508 53.26700624 -195.75228882 55.17547607 C-198.11687037 55.76352131 -200.48097028 56.35347085 -202.8449707 56.94384766 C-209.50865522 58.60724481 -216.17333583 60.2661024 -222.84375 61.90234375 C-223.74907471 62.12543213 -224.65439941 62.34852051 -225.5871582 62.57836914 C-227.1578241 62.96487781 -228.7291997 63.34852277 -230.30151367 63.72827148 C-234.73912794 64.82195818 -239.03122344 66.17967422 -243.35571289 67.65673828 C-246.33726009 68.62499312 -249.34736784 69.15720844 -252.4296875 69.6875 C-254.90573471 70.48301717 -255.94723838 71.11885301 -257.375 73.3125 C-257.43618736 77.38980299 -256.73087581 78.93392079 -253.92578125 81.91796875 C-252.85941574 82.79477686 -251.7789468 83.65461739 -250.6875 84.5 C-250.10516602 84.97139404 -249.52283203 85.44278809 -248.92285156 85.9284668 C-247.08670036 87.40726112 -245.23355135 88.86199519 -243.375 90.3125 C-242.24846671 91.20022751 -241.12215856 92.0882408 -239.99609375 92.9765625 C-238.30279149 94.30889615 -236.60760105 95.6385457 -234.9074707 96.9621582 C-228.56915247 101.9044174 -222.38007967 107.02560603 -216.1875 112.1484375 C-215.21103516 112.94652832 -215.21103516 112.94652832 -214.21484375 113.76074219 C-213.02901365 114.76089295 -211.87184121 115.796563 -210.75390625 116.87207031 C-208.26517375 119.21697347 -206.92126096 120.29720469 -203.4453125 120.39453125 C-199.69209232 119.07183152 -196.542596 117.18659368 -193.25 115 C-191.81099671 114.07380818 -190.37084164 113.14940403 -188.9296875 112.2265625 C-188.17913086 111.74348633 -187.42857422 111.26041016 -186.65527344 110.76269531 C-182.93649527 108.39764796 -179.15838344 106.13477084 -175.375 103.875 C-174.56949707 103.39264893 -173.76399414 102.91029785 -172.93408203 102.41333008 C-167.48025171 99.15298801 -162.01460111 95.91273698 -156.546875 92.67578125 C-153.73940712 91.01331818 -150.93212249 89.3505462 -148.125 87.6875 C-147.41939941 87.26953156 -146.71379883 86.85156311 -145.98681641 86.42092896 C-138.73621028 82.12364442 -131.49578467 77.82278454 -124.375 73.3125 C-119.13636416 70.00704562 -113.85607127 66.78417467 -108.5234375 63.6328125 C-107.45919052 63.00184158 -107.45919052 63.00184158 -106.3734436 62.35812378 C-102.73991043 60.20426905 -99.1032932 58.05569368 -95.46484375 55.91015625 C-94.78096588 55.50610565 -94.09708801 55.10205505 -93.39248657 54.6857605 C-92.10427912 53.92477552 -90.81525218 53.16517533 -89.52523804 52.40725708 C-86.66257146 50.7154523 -83.90039886 48.97896711 -81.17822266 47.06591797 C-77.70532894 44.89362022 -75.39637119 44.9907903 -71.375 45.3125 C-70.6875 47.625 -70.6875 47.625 -70.375 50.3125 C-72.76977547 53.4592425 -76.31954471 55.20891981 -79.68359375 57.1640625 C-80.31383453 57.53551392 -80.94407532 57.90696533 -81.59341431 58.28967285 C-82.95389984 59.09104877 -84.31555678 59.89043865 -85.67825317 60.68804932 C-89.30932854 62.81378733 -92.93157552 64.95447703 -96.5546875 67.09375 C-97.29314407 67.52930206 -98.03160065 67.96485413 -98.79243469 68.41360474 C-106.043688 72.6955788 -113.24622694 77.05575262 -120.4375 81.4375 C-121.62034472 82.15774213 -122.80320584 82.87795731 -123.98608398 83.59814453 C-126.17585723 84.93151585 -128.36555968 86.26500345 -130.55517578 87.59863281 C-133.98670467 89.68428933 -137.42848876 91.75169946 -140.875 93.8125 C-160.44739201 105.52422068 -179.89545357 117.44732226 -199.375 129.3125 C-198.64452967 138.06923579 -197.28835602 146.69709974 -195.90087891 155.3684082 C-195.50484514 157.84470459 -195.11338149 160.3216892 -194.72265625 162.79882812 C-193.36619931 171.35752829 -191.93231124 179.89753186 -190.40510559 188.42736816 C-189.37338754 194.22758572 -188.48868529 200.03904373 -187.6875 205.875 C-187.55794922 206.79990234 -187.42839844 207.72480469 -187.29492188 208.67773438 C-186.98557911 210.88896232 -186.67889908 213.10051861 -186.375 215.3125 C-184.19023257 214.48862244 -184.19023257 214.48862244 -183.49291992 212.265625 C-183.20006104 211.37359375 -182.90720215 210.4815625 -182.60546875 209.5625 C-182.11203979 208.07339111 -182.11203979 208.07339111 -181.60864258 206.55419922 C-181.26341553 205.48443848 -180.91818848 204.41467773 -180.5625 203.3125 C-180.20502686 202.22340332 -179.84755371 201.13430664 -179.47924805 200.01220703 C-177.22551941 193.09574956 -175.1116588 186.14937431 -173.10498047 179.15795898 C-167.76239518 160.69989518 -167.76239518 160.69989518 -164.375 157.3125 C-159.73880608 157.0863442 -157.41356279 158.91238325 -154.125 161.875 C-153.35414063 162.59945312 -152.58328125 163.32390625 -151.7890625 164.0703125 C-149.43753174 166.25442036 -147.01708339 168.26030551 -144.5 170.25 C-141.0597871 172.97262248 -137.64193254 175.71739666 -134.25 178.5 C-118.90549618 191.09501377 -118.90549618 191.09501377 -103.33081055 203.40283203 C-100.57518861 205.54331369 -97.88157539 207.71684383 -95.26953125 210.03125 C-94.31433594 210.8665625 -93.35914063 211.701875 -92.375 212.5625 C-91.55 213.31015625 -90.725 214.0578125 -89.875 214.828125 C-87.4117253 216.58083178 -87.4117253 216.58083178 -84.25 216.296875 C-80.81994082 215.12245256 -80.07191286 214.48278032 -78.375 211.3125 C-77.34318776 208.65121378 -76.39485968 206.01825033 -75.5 203.3125 C-73.78446645 198.28529156 -72.03384989 193.32206443 -69.9375 188.4375 C-67.72196384 183.2726649 -65.78694967 178.03230485 -63.875 172.75 C-62.0438308 167.69777336 -60.20079192 162.72550025 -57.875 157.875 C-55.64050298 153.14651599 -53.93561811 148.31765784 -52.25 143.375 C-48.13295435 131.31510848 -43.40248642 119.50562816 -38.69677734 107.66601562 C-36.93618307 103.19916617 -35.22035546 98.71570505 -33.51171875 94.22875977 C-32.39257639 91.35759236 -31.21125241 88.52088064 -30 85.6875 C-27.44618306 79.63222336 -25.2082293 73.47585213 -22.96142578 67.30224609 C-21.01564083 61.98066693 -18.91829854 56.75374973 -16.69140625 51.54296875 C-14.63595159 46.49887082 -12.7978117 41.37528517 -10.9609375 36.24804688 C-9.21455533 31.41909712 -7.26655336 26.77436574 -5.03149414 22.14916992 C-4.81485107 21.54306885 -4.59820801 20.93696777 -4.375 20.3125 C-4.705 19.6525 -5.035 18.9925 -5.375 18.3125 C-5.931875 18.88097656 -6.48875 19.44945312 -7.0625 20.03515625 C-10.63217138 23.64703658 -14.18387969 27.2187377 -18.0625 30.5 C-22.04059371 33.90410023 -25.69500088 37.59376915 -29.375 41.3125 C-33.56285371 45.54429184 -37.77154881 49.63061208 -42.3203125 53.4765625 C-45.11932704 55.9775831 -47.7377928 58.64275477 -50.375 61.3125 C-53.57843797 64.55546219 -56.7660716 67.74186097 -60.25 70.6875 C-64.84195776 74.58778212 -69.00083432 78.91340542 -73.23510742 83.19213867 C-76.82921652 86.80944493 -80.49209373 90.24879984 -84.38671875 93.54296875 C-87.49938432 96.31317996 -90.38859292 99.3059143 -93.3137207 102.27075195 C-95.87655837 104.85484696 -98.47469381 107.33375931 -101.25 109.6875 C-105.60736511 113.39932954 -109.56944137 117.48069337 -113.59057617 121.54760742 C-117.07503039 125.05638239 -120.64604005 128.37403503 -124.41796875 131.57421875 C-126.83952989 133.72510639 -129.09874795 136.00861515 -131.375 138.3125 C-143.19072052 150.16446507 -143.19072052 150.16446507 -147.875 150.75 C-148.7 150.605625 -149.525 150.46125 -150.375 150.3125 C-151.6719306 145.86479093 -151.6719306 145.86479093 -150.3984375 143.49609375 C-149.85445313 142.91988281 -149.31046875 142.34367188 -148.75 141.75 C-148.10417969 141.06550781 -147.45835937 140.38101563 -146.79296875 139.67578125 C-143.38044271 136.34043674 -139.88844517 133.09787816 -136.3581543 129.88769531 C-132.83031809 126.67919129 -129.41242601 123.39645277 -126.0625 120 C-123.33149998 117.23404318 -120.5894764 114.57572418 -117.625 112.0625 C-112.99934039 108.11376619 -108.79426028 103.75722953 -104.51977539 99.43774414 C-100.88108225 95.77552814 -97.17240011 92.2859922 -93.23046875 88.94921875 C-90.20125491 86.27713328 -87.41772873 83.36262537 -84.58203125 80.48828125 C-82.63368901 78.56752616 -80.64500791 76.77207195 -78.5625 75 C-74.98601134 71.93749773 -71.68110813 68.65969055 -68.375 65.3125 C-65.15102796 62.04866432 -61.93982074 58.84419792 -58.4375 55.875 C-54.71542307 52.71240018 -51.30633928 49.28279304 -47.875 45.8125 C-43.88723443 41.77951526 -39.86005092 37.91847535 -35.53125 34.25 C-31.9307321 31.01475203 -28.57435831 27.53356989 -25.17431641 24.09008789 C-21.57990761 20.46671741 -17.90467711 17.02360976 -13.9609375 13.77734375 C-12.16122122 12.11504423 -10.79031966 10.30681407 -9.375 8.3125 C-12.38446517 8.3125 -15.0842867 9.19498916 -18 9.9375 Z " fill="#6176DD" transform="translate(645.375,399.6875)"/>
<path d="M0 0 C4.66645034 2.75156684 7.62594222 5.52574232 9.29296875 10.8203125 C11.2206176 20.50928434 10.20151541 30.45421781 4.92578125 38.80859375 C1.06196789 44.2441278 -2.65696448 47.50453392 -9.26171875 49.05859375 C-13.81179243 49.48852197 -18.35466515 49.66329615 -22.26171875 47.05859375 C-23.26171875 44.12109375 -23.26171875 44.12109375 -23.26171875 41.05859375 C-22.06640625 39.37109375 -22.06640625 39.37109375 -20.26171875 38.05859375 C-17.95703125 37.8359375 -17.95703125 37.8359375 -15.38671875 37.99609375 C-10.06381804 38.1690674 -10.06381804 38.1690674 -5.26171875 36.05859375 C-3.9858438 33.74455505 -3.9858438 33.74455505 -3.26171875 31.05859375 C-2.92269531 30.30320312 -2.58367187 29.5478125 -2.234375 28.76953125 C-1.13694506 25.71083095 -0.92772744 23.23988108 -0.88671875 19.99609375 C-0.84417969 18.46275391 -0.84417969 18.46275391 -0.80078125 16.8984375 C-1.37502974 13.36048283 -2.43182434 12.19503656 -5.26171875 10.05859375 C-8.37098922 9.72951208 -8.37098922 9.72951208 -11.26171875 11.05859375 C-13.07851991 13.94209303 -13.07851991 13.94209303 -14.26171875 17.05859375 C-16.26171875 19.05859375 -16.26171875 19.05859375 -18.69921875 19.30859375 C-21.26171875 19.05859375 -21.26171875 19.05859375 -24.26171875 17.05859375 C-28.0892078 17.24091967 -28.0892078 17.24091967 -31.26171875 19.05859375 C-31.61896409 24.50658519 -31.69003785 26.77319488 -28.26171875 31.05859375 C-27.94921875 34.18359375 -27.94921875 34.18359375 -28.26171875 37.05859375 C-30.26171875 39.05859375 -30.26171875 39.05859375 -33.07421875 39.62109375 C-36.65051953 38.98998185 -36.97301431 38.65389506 -39.01171875 35.87109375 C-42.41646142 30.39723093 -44.23992263 25.63011728 -43.26171875 19.05859375 C-40.80140102 13.11282589 -37.12317765 8.89667119 -31.26171875 6.05859375 C-28.42893253 5.62865315 -25.67818116 5.49752943 -22.81640625 5.3984375 C-18.76863429 4.85997242 -17.09742406 2.89429906 -14.26171875 0.05859375 C-9.47048627 -1.53848374 -4.75032512 -1.97725104 0 0 Z " fill="#6075DC" transform="translate(413.26171875,572.94140625)"/>
<path d="M0 0 C0.99 -0.66 1.98 -1.32 3 -2 C8.42832279 -2.67364468 13.3956883 -2.70006329 18.4375 -0.5 C23.21680498 4.16273656 26.2728652 8.26965874 26.5 15.125 C26.22467946 20.38848088 24.76795105 24.23204895 21 28 C17.70285207 27.67028521 16.3773161 27.3773161 14 25 C13.85502015 22.41935871 13.81322455 19.95056116 13.875 17.375 C13.88402344 16.66859375 13.89304687 15.9621875 13.90234375 15.234375 C13.92592397 13.48943902 13.96179539 11.74467705 14 10 C10.90826248 8.45413124 8.40570448 8.70640479 5 9 C3.62689293 10.29233607 2.28965176 11.62437146 1 13 C-1.5 13.5 -1.5 13.5 -4 13 C-4.61875 12.34 -5.2375 11.68 -5.875 11 C-7.95852462 8.63376171 -7.95852462 8.63376171 -11.625 8.625 C-15.06832602 8.65186266 -15.06832602 8.65186266 -17 11 C-17.64904786 17.27412936 -16.76363617 21.8620023 -13 27 C-9.40218471 30.74109112 -6.00292956 33.34337592 -0.6875 33.5 C3.07943239 33.2632866 3.07943239 33.2632866 6 31 C8.5625 30.75 8.5625 30.75 11 31 C13 33 13 33 13.5 35.875 C13 39 13 39 10.1875 41.3125 C3.98523579 44.59605164 -3.23688113 45.41630618 -10.0625 43.38671875 C-11.90991281 42.41597174 -13.39680928 41.33725861 -15 40 C-15.66773438 39.46375 -16.33546875 38.9275 -17.0234375 38.375 C-23.58866528 32.5175477 -27.24648964 25.50796069 -28.44140625 16.7734375 C-28.6212498 12.09750528 -28.35660669 8.79879898 -26.4375 4.5 C-18.59157264 -3.54710498 -10.25978791 -3.59092577 0 0 Z " fill="#6076DD" transform="translate(628,601)"/>
<path d="M0 0 C0.58394531 -0.30292969 1.16789062 -0.60585938 1.76953125 -0.91796875 C6.20407822 -3.06922884 11.20615036 -2.60315801 16 -2 C20.72185795 -0.12132117 24.10820255 3.47060258 26.328125 8.0078125 C28.68094243 14.98418976 27.13909418 20.70695539 24 27.1875 C20.22315803 34.4723141 15.71884458 38.7829965 8.75 42.9375 C2.25217111 44.77855152 -4.95800249 45.44479362 -11.1875 42.375 C-14 40 -14 40 -15.125 36.9375 C-15 34 -15 34 -13.9375 32.0625 C-11.05926771 30.48411455 -9.09963982 31.2086026 -6 32 C-5.34 32.33 -4.68 32.66 -4 33 C1.03946532 33.38033701 4.01046351 33.17117003 8 30 C12.32973298 25.44903979 15.14068875 22.44122733 15.1875 16 C15.20167969 15.113125 15.21585937 14.22625 15.23046875 13.3125 C15.22713126 10.80480016 15.22713126 10.80480016 13 9 C10.08461971 8.49957854 10.08461971 8.49957854 7 9 C6.34 9.66 5.68 10.32 5 11 C3 13 3 13 0.0625 13.5 C-3.65905041 12.89239993 -5.09591733 11.32326614 -8 9 C-11.12762267 8.41557037 -11.12762267 8.41557037 -14 9 C-16.34988344 12.52482517 -16.16235278 13.8600042 -16 18 C-15.77777778 23.66666667 -15.77777778 23.66666667 -18 27 C-20.9375 27.4375 -20.9375 27.4375 -24 27 C-26.39725041 24.66996222 -26.96621531 23.28444526 -27.36328125 19.94140625 C-27.34652344 18.82636719 -27.32976562 17.71132813 -27.3125 16.5625 C-27.30863281 15.45003906 -27.30476563 14.33757812 -27.30078125 13.19140625 C-26.85005295 8.40900334 -25.55232197 5.12404753 -22.125 1.75 C-21.63257813 1.24984375 -21.14015625 0.7496875 -20.6328125 0.234375 C-14.94650117 -4.06436753 -6.05954652 -2.49510739 0 0 Z " fill="#6076DD" transform="translate(441,381)"/>
<path d="M0 0 C0.99 0.33 1.98 0.66 3 1 C2.74438677 3.3431213 2.40729228 5.67843403 2 8 C1.01 8.495 1.01 8.495 0 9 C0 6.03 0 3.06 0 0 Z " fill="#1C15A3" transform="translate(459,606)"/>
</svg>
